<svg width="86" height="50" viewBox="0 0 86 50" fill="none" xmlns="http://www.w3.org/2000/svg">
<path d="M32.5562 46.2168C31.5552 47.0957 30.127 47.8892 28.2715 48.5972C26.4404 49.3052 24.231 49.6592 21.6431 49.6592C20.2759 49.6592 18.9575 49.5127 17.688 49.2197C16.4185 48.9268 15.2954 48.4873 14.3188 47.9014C13.3667 47.291 12.5977 46.5342 12.0117 45.6309C11.4502 44.7031 11.1694 43.6167 11.1694 42.3716V18.7876H2.63672C1.70898 17.4448 1.0376 16.1143 0.622559 14.7959C0.20752 13.4531 0 12.0371 0 10.5479C0 9.4248 0.0976562 8.41162 0.292969 7.5083C0.488281 6.58057 0.744629 5.7627 1.06201 5.05469C1.37939 4.32227 1.7334 3.6875 2.12402 3.15039C2.53906 2.58887 2.9541 2.125 3.36914 1.75879H41.2354C41.9189 2.80859 42.4927 4.11475 42.9565 5.67725C43.4448 7.23975 43.689 8.81445 43.689 10.4014C43.689 11.8906 43.5059 13.1724 43.1396 14.2466C42.7979 15.2964 42.3096 16.1631 41.6748 16.8467C41.0645 17.5059 40.332 17.9941 39.4775 18.3115C38.623 18.6289 37.6831 18.7876 36.6577 18.7876H25.9277C25.8545 18.9829 25.8179 19.166 25.8179 19.3369C25.8179 19.5566 25.8667 19.7397 25.9644 19.8862C26.062 20.0083 26.2573 20.1182 26.5503 20.2158C26.8677 20.3135 27.2949 20.3867 27.832 20.4355C28.3936 20.46 29.126 20.4722 30.0293 20.4722H32.5562V46.2168Z" fill="#6768CB"/>
<path d="M85.2715 18.0918C85.2715 19.9473 84.9907 21.7173 84.4292 23.4019C83.8677 25.062 82.9766 26.5757 81.7559 27.9429C80.5596 29.2856 79.0215 30.4697 77.1416 31.4951C75.2617 32.4961 72.9912 33.2651 70.3301 33.8022C70.3301 34.3149 70.4521 34.6812 70.6963 34.9009C70.9404 35.0962 71.2334 35.1938 71.5752 35.1938C72.21 35.1938 72.979 35.084 73.8823 34.8643C74.8101 34.6445 75.75 34.3271 76.7021 33.9121C77.6787 33.4971 78.6187 33.0088 79.522 32.4473C80.4497 31.8613 81.2432 31.2144 81.9023 30.5063C83.0742 31.6782 83.9409 33.082 84.5024 34.7178C85.0884 36.3535 85.3813 38.0381 85.3813 39.7715C85.3813 41.4561 85.1128 43.0796 84.5757 44.6421C84.0386 46.2046 83.2207 47.5352 82.1221 48.6338H49.1997C47.3198 45.8506 46.3799 42.689 46.3799 39.1489C46.3799 37.6841 46.5386 36.2192 46.856 34.7544C47.1733 33.2651 47.6738 31.9224 48.3574 30.7261C50.6279 30.2866 52.8862 29.6396 55.1323 28.7852C57.4028 27.9062 59.4292 26.9053 61.2114 25.7822C63.0181 24.6348 64.4829 23.3774 65.606 22.0103C66.729 20.6431 67.2905 19.2393 67.2905 17.7988C67.2905 17.0908 67.1318 16.5049 66.8145 16.041C66.4971 15.5527 66.0332 15.3086 65.4229 15.3086C64.7393 15.3086 64.2632 15.5283 63.9946 15.9678C63.7505 16.3828 63.6284 16.8345 63.6284 17.3228C63.6284 17.811 63.7383 18.2993 63.958 18.7876C64.1777 19.2759 64.4951 19.6665 64.9102 19.9595C64.251 20.936 63.4209 21.8516 62.4199 22.7061C61.4189 23.5361 60.3325 24.3052 59.1606 25.0132C58.0132 25.6968 56.8169 26.3071 55.5718 26.8442C54.3511 27.3569 53.1792 27.772 52.0562 28.0894C49.9565 26.6978 48.3452 25.0132 47.2222 23.0356C46.0991 21.0337 45.5376 18.7754 45.5376 16.2607C45.5376 13.7705 46.0625 11.561 47.1123 9.63232C48.1621 7.6792 49.5781 6.04346 51.3604 4.7251C53.1426 3.40674 55.2178 2.40576 57.5859 1.72217C59.9541 1.03857 62.4443 0.696777 65.0566 0.696777C67.8154 0.696777 70.4155 1.0752 72.8569 1.83203C75.3228 2.58887 77.4712 3.71191 79.3022 5.20117C81.1333 6.66602 82.5859 8.48486 83.6602 10.6577C84.7344 12.8062 85.2715 15.2842 85.2715 18.0918Z" fill="#6768CB"/>
</svg>
