<svg width="229" height="131" viewBox="0 0 229 131" fill="none" xmlns="http://www.w3.org/2000/svg">
<path d="M87.5 52.9258V121.578C84.5052 124.182 80.5013 126.363 75.4883 128.121C70.4753 129.879 64.388 130.758 57.2266 130.758C50.0651 130.758 43.9779 129.163 38.9648 125.973C33.3008 122.522 30.4688 117.639 30.4688 111.324V48.4336H7.71484C3.02734 41.7279 0.683594 34.4036 0.683594 26.4609C0.683594 21.0573 1.52995 16.3698 3.22266 12.3984C4.98047 8.36198 7.12891 5.23698 9.66797 3.02344H110.645C112.533 5.95312 114.095 9.5013 115.332 13.668C116.569 17.8346 117.188 21.9688 117.188 26.0703C117.188 33.7526 115.495 39.4167 112.109 43.0625C108.724 46.6432 104.167 48.4336 98.4375 48.4336H69.8242C69.6289 48.8893 69.5312 49.3776 69.5312 49.8984C69.5312 51.0703 70.2148 51.8516 71.582 52.2422C73.0143 52.6979 76.0742 52.9258 80.7617 52.9258H87.5ZM228.074 46.5781C228.074 57.0599 224.982 65.7839 218.797 72.75C211.831 80.5625 201.642 85.8034 188.23 88.4727C188.23 90.9466 189.337 92.1836 191.551 92.1836C195.457 92.1836 200.242 90.9466 205.906 88.4727C211.57 85.9987 215.965 83.069 219.09 79.6836C225.275 85.8685 228.367 94.0391 228.367 104.195C228.367 114.286 225.47 122.229 219.676 128.023H131.883C126.87 120.536 124.363 112.268 124.363 103.219C124.363 94.1042 126.121 86.4544 129.637 80.2695C142.462 77.7956 154.083 73.2708 164.5 66.6953C174.917 60.1198 180.125 53.1536 180.125 45.7969C180.125 43.8438 179.669 42.2487 178.758 41.0117C177.911 39.7747 176.707 39.1562 175.145 39.1562C171.954 39.1562 170.359 40.849 170.359 44.2344C170.359 47.5547 171.499 49.9961 173.777 51.5586C170.587 56.3112 165.672 60.6732 159.031 64.6445C152.391 68.6159 145.88 71.4805 139.5 73.2383C127.911 65.556 122.117 55.1719 122.117 42.0859C122.117 29 127.293 18.6159 137.645 10.9336C147.28 3.77214 159.617 0.191406 174.656 0.191406C189.76 0.191406 202.26 4.16276 212.156 12.1055C222.768 20.6992 228.074 32.1901 228.074 46.5781Z" fill="#DBDBF3"/>
</svg>
